<?xml version="1.0" standalone="no"?><!DOCTYPE svg PUBLIC "-//W3C//DTD SVG 1.1//EN" "http://www.w3.org/Graphics/SVG/1.1/DTD/svg11.dtd"><svg t="1741877176891" class="icon" viewBox="0 0 1024 1024" version="1.1" xmlns="http://www.w3.org/2000/svg" p-id="7026" xmlns:xlink="http://www.w3.org/1999/xlink" width="200" height="200"><path d="M963.561395 289.568212a76.8 76.8 0 0 0-38.993377-65.836645L545.088989 9.7766a77.082561 77.082561 0 0 0-76.573951 0.904195L93.670004 232.264901A76.8 76.8 0 0 0 56.032918 299.00574l4.520972 435.48256a76.8 76.8 0 0 0 38.936865 65.836645l379.422517 213.672406a76.8 76.8 0 0 0 76.630463-0.565121l375.01457-221.697131a76.8 76.8 0 0 0 37.524061-66.740839l-4.407947-435.143487z m-67.532009 443.959382l-374.958057 221.753642a9.211479 9.211479 0 0 1-8.815894 0L132.832918 741.439294a8.98543 8.98543 0 0 1-4.520971-7.798676l-4.520971-435.426048a8.815894 8.815894 0 0 1 4.351435-7.742164L503.043956 68.831788a9.49404 9.49404 0 0 1 8.98543 0l379.479029 213.841943a8.98543 8.98543 0 0 1 4.464459 7.685651l4.294923 435.426048a8.533333 8.533333 0 0 1-4.351435 7.685652M279.312389 377.67064v268.997793l232.716997 134.329359 232.77351-134.442384V377.67064L512.029386 243.34128zM615.616141 512a103.473731 103.473731 0 1 1-103.417218-103.586755 103.473731 103.473731 0 0 1 103.417218 103.586755" fill="#1296db" p-id="7027"></path></svg>